<?xml version="1.0" encoding="UTF-8"?>
<svg width="32px" height="32px" viewBox="0 0 32 32" version="1.1" xmlns="http://www.w3.org/2000/svg">
    <title>Criminal Identification System Favicon</title>
    <g stroke="none" stroke-width="1" fill="none" fill-rule="evenodd">
        <!-- Background Circle -->
        <circle fill="#2c3e50" cx="16" cy="16" r="15"></circle>
        
        <!-- Fingerprint Pattern -->
        <path d="M16,6 C10.477,6 6,10.477 6,16 C6,21.523 10.477,26 16,26 C21.523,26 26,21.523 26,16 C26,10.477 21.523,6 16,6 Z M16,8 C20.418,8 24,11.582 24,16 C24,20.418 20.418,24 16,24 C11.582,24 8,20.418 8,16 C8,11.582 11.582,8 16,8 Z" fill="#4a6cf7" fill-rule="nonzero"></path>
        
        <!-- Shield Badge -->
        <path d="M16,28 L13,26 L13,23 L16,21 L19,23 L19,26 L16,28 Z" fill="#f5576c"></path>
        <text x="16" y="25.5" font-family="Arial" font-size="3" fill="#ffffff" text-anchor="middle">CIS</text>
    </g>
</svg>
