<?xml version="1.0" encoding="UTF-8"?>
<svg width="200px" height="200px" viewBox="0 0 200 200" version="1.1" xmlns="http://www.w3.org/2000/svg">
    <title>Criminal Identification System Logo</title>
    <g stroke="none" stroke-width="1" fill="none" fill-rule="evenodd">
        <!-- Background Circle -->
        <circle fill="#2c3e50" cx="100" cy="100" r="90"></circle>
        
        <!-- Fingerprint Pattern -->
        <path d="M100,40 C67.909,40 42,65.909 42,98 C42,130.091 67.909,156 100,156 C132.091,156 158,130.091 158,98 C158,65.909 132.091,40 100,40 Z M100,50 C126.514,50 148,71.486 148,98 C148,124.514 126.514,146 100,146 C73.486,146 52,124.514 52,98 C52,71.486 73.486,50 100,50 Z" fill="#4a6cf7" fill-rule="nonzero"></path>
        
        <path d="M100,60 C78.972,60 62,76.972 62,98 C62,119.028 78.972,136 100,136 C121.028,136 138,119.028 138,98 C138,76.972 121.028,60 100,60 Z M100,70 C115.464,70 128,82.536 128,98 C128,113.464 115.464,126 100,126 C84.536,126 72,113.464 72,98 C72,82.536 84.536,70 100,70 Z" fill="#4a6cf7" fill-rule="nonzero"></path>
        
        <path d="M100,80 C90.059,80 82,88.059 82,98 C82,107.941 90.059,116 100,116 C109.941,116 118,107.941 118,98 C118,88.059 109.941,80 100,80 Z M100,90 C104.418,90 108,93.582 108,98 C108,102.418 104.418,106 100,106 C95.582,106 92,102.418 92,98 C92,93.582 95.582,90 100,90 Z" fill="#4a6cf7" fill-rule="nonzero"></path>
        
        <!-- Magnifying Glass -->
        <circle stroke="#ffffff" stroke-width="6" cx="135" cy="65" r="20"></circle>
        <line x1="150" y1="80" x2="165" y2="95" stroke="#ffffff" stroke-width="6" stroke-linecap="round"></line>
        
        <!-- Face Outline -->
        <path d="M75,75 C75,75 65,85 65,100 C65,115 75,125 75,125" stroke="#ffffff" stroke-width="3" stroke-linecap="round"></path>
        
        <!-- Shield Badge -->
        <path d="M100,170 L85,160 L85,145 L100,135 L115,145 L115,160 L100,170 Z" fill="#f5576c"></path>
        <text x="100" y="157" font-family="Arial" font-size="14" fill="#ffffff" text-anchor="middle">CIS</text>
    </g>
</svg>
